<svg width="393" height="954" viewBox="0 0 393 954" fill="none" xmlns="http://www.w3.org/2000/svg">
  <g transform="translate(0, -0.5)">
    <g id="Group 289287">vg preserveAspectRatio="none" width="100%" height="100%" overflow="visible" style="display: block;" viewBox="0 0 1002 1015" fill="none" xmlns="http://www.w3.org/2000/svg">
<g id="Group 289287">
<g id="Union" opacity="0.5" filter="url(#filter0_f_0_717)">
<path d="M543.34 428.684C580.538 446.945 609.136 471.698 625.688 497.071L625.575 497.078C638.022 519.361 640.986 541.658 631.96 560.045L587.608 650.393L457.594 586.569C419.022 567.634 389.238 540.901 372.979 513.788L373.918 513.725C363.274 492.861 360.873 472.168 369.266 455.069L413.506 364.949L543.34 428.684Z" fill="url(#paint0_linear_0_717)"/>
</g>
<path id="Union_2" opacity="0.2" d="M438.081 324C485.092 324 526.59 342.591 556.13 372.52C579.946 400.582 594 436.855 594 476.449V671H429.69C380.944 671 337.247 649.983 307.136 616.786C285.867 589.651 274 554.88 274 518.06V324H438.081Z" fill="url(#paint1_linear_0_717)"/>
</g>
<defs>
<filter id="filter0_f_0_717" x="0.209976" y="0.949219" width="1000.99" height="1013.44" filterUnits="userSpaceOnUse" color-interpolation-filters="sRGB">
<feFlood flood-opacity="0" result="BackgroundImageFix"/>
<feBlend mode="normal" in="SourceGraphic" in2="BackgroundImageFix" result="shape"/>
<feGaussianBlur stdDeviation="182" result="effect1_foregroundBlur_0_717"/>
</filter>
<linearGradient id="paint0_linear_0_717" x1="627.161" y1="569.821" x2="373.954" y2="445.521" gradientUnits="userSpaceOnUse">
<stop stop-color="#C73564"/>
<stop offset="0.5" stop-color="#EA3D53"/>
<stop offset="1" stop-color="#E3402E"/>
</linearGradient>
<linearGradient id="paint1_linear_0_717" x1="274" y1="497.5" x2="594" y2="497.5" gradientUnits="userSpaceOnUse">
<stop stop-color="#080809"/>
<stop offset="1" stop-color="#64646F"/>
</linearGradient>
</defs>
</svg>
