<svg width="393" height="703" viewBox="0 0 393 703" fill="none" xmlns="http://www.w3.org/2000/svg">
  <!-- This is actually the Neuzeit logo, not a background element -->
  <g transform="translate(-10.42, 75.826) rotate(153.854) scale(1, -1)">
    <g id="Group 61">
<path id="Union" d="M54.4629 46H41.7393V23.5107H54.4629V46ZM18.5752 27.1191C20.0916 28.896 20.9942 31.192 20.9942 33.7061V45.999H10.6231C7.54642 45.999 4.7882 44.6709 2.88773 42.5732L18.5752 27.1191ZM40.3496 45.999H32.2071C26.2513 45.9988 22.0743 40.5949 22.0742 36.0859V34.9824H40.3496V45.999ZM76.3682 34.3389H72.5899V45.999H60.0205V34.4141H55.625V23.4727H76.3682V34.3389ZM10.6231 23.5107C13.5946 23.5107 16.2178 24.689 18.085 26.585L2.41898 42.0195C1.06615 40.2975 0.251998 38.1453 0.251984 35.8047V23.5107H10.6231ZM40.3496 23.5127V34.2627H22.0742V33.7061C22.0743 28.8243 26.1376 23.5107 32.4248 23.5107C37.781 23.5107 40.3112 23.5127 40.3496 23.5127ZM62.67 12.5674C62.67 17.1508 58.7236 22.9053 52.4131 22.9053C45.2084 22.9052 41.7472 16.6701 41.7471 12.6445C41.7471 10.8211 41.751 0.0390625 41.751 0.0390625H62.67V12.5674ZM40.3496 11.4727V22.4893H32.2071C26.2512 22.489 22.0742 17.0846 22.0742 12.5762V11.4727H40.3496ZM10.3867 0.0390625C14.6295 0.0390795 20.9481 2.90384 20.9483 10.75V22.4492H0.251984V0.0390625H10.3867ZM40.3496 0.00195313V10.752H22.0742V10.1963C22.0742 5.31445 26.1376 0 32.4248 0C37.7809 8.80778e-08 40.3112 0.00191752 40.3496 0.00195313Z" fill="var(--fill-0, #F7F7F7)"/>
<path id="Vector" d="M0 22.9915V0H10.3281C14.6519 0 21.0913 2.93867 21.0913 10.9887V22.9915H0Z" fill="var(--fill-0, #F7F7F7)"/>
</g>
</svg>
